# MagicaVoxel @ Ephtracy

# group
o 

# material
mtllib Tile4.mtl
usemtl palette

# normals
vn -1 0 0
vn 1 0 0
vn 0 0 1
vn 0 0 -1
vn 0 -1 0
vn 0 1 0

# texcoords
vt 0.970703 0.5
vt 0.974609 0.5

# verts
v -0.5 0 0.1
v -0.5 0 0
v -0.5 0 -0.1
v -0.5 0.4 0.5
v -0.5 0.4 0.1
v -0.5 0.5 0.5
v -0.5 0.5 0
v -0.5 0.6 0.5
v -0.5 0.6 -0.1
v 0.5 0 0.1
v 0.5 0 0
v 0.5 0 -0.1
v 0.5 0.4 0.5
v 0.5 0.4 0.1
v 0.5 0.5 0.5
v 0.5 0.5 0
v 0.5 0.6 0.5
v 0.5 0.6 -0.1
v -0.5 0.4 0.5
v -0.5 0.5 0.5
v -0.5 0.6 0.5
v 0.5 0.4 0.5
v 0.5 0.5 0.5
v 0.5 0.6 0.5
v -0.5 0 0.1
v -0.5 0.4 0.1
v 0.5 0 0.1
v 0.5 0.4 0.1
v -0.5 0 -0.1
v -0.5 0.6 -0.1
v 0.5 0 -0.1
v 0.5 0.6 -0.1
v -0.5 0 0.1
v 0.5 0 0.1
v -0.5 0 0
v 0.5 0 0
v -0.5 0 -0.1
v 0.5 0 -0.1
v -0.5 0.4 0.5
v 0.5 0.4 0.5
v -0.5 0.4 0.1
v 0.5 0.4 0.1
v -0.5 0.6 0.5
v 0.5 0.6 0.5
v -0.5 0.6 -0.1
v 0.5 0.6 -0.1

# faces
f 5/1/1 2/1/1 1/1/1
f 6/1/1 5/1/1 4/1/1
f 7/2/1 3/2/1 2/2/1
f 7/1/1 5/1/1 6/1/1
f 7/1/1 2/1/1 5/1/1
f 8/2/1 7/2/1 6/2/1
f 9/2/1 3/2/1 7/2/1
f 9/2/1 7/2/1 8/2/1
f 10/1/2 11/1/2 14/1/2
f 13/1/2 14/1/2 15/1/2
f 11/2/2 12/2/2 16/2/2
f 15/1/2 14/1/2 16/1/2
f 14/1/2 11/1/2 16/1/2
f 15/2/2 16/2/2 17/2/2
f 16/2/2 12/2/2 18/2/2
f 17/2/2 16/2/2 18/2/2
f 22/1/3 20/1/3 19/1/3
f 23/2/3 21/2/3 20/2/3
f 23/1/3 20/1/3 22/1/3
f 24/2/3 21/2/3 23/2/3
f 27/1/3 26/1/3 25/1/3
f 28/1/3 26/1/3 27/1/3
f 29/2/4 30/2/4 31/2/4
f 31/2/4 30/2/4 32/2/4
f 35/1/5 34/1/5 33/1/5
f 36/1/5 34/1/5 35/1/5
f 37/2/5 36/2/5 35/2/5
f 38/2/5 36/2/5 37/2/5
f 41/1/5 40/1/5 39/1/5
f 42/1/5 40/1/5 41/1/5
f 43/2/6 44/2/6 45/2/6
f 45/2/6 44/2/6 46/2/6
