# MagicaVoxel @ Ephtracy

# group
o 

# material
mtllib Tile13.0.mtl
usemtl palette

# normals
vn -1 0 0
vn 1 0 0
vn 0 0 1
vn 0 0 -1
vn 0 -1 0
vn 0 1 0

# texcoords
vt 0.970703 0.5
vt 0.982422 0.5
vt 0.986328 0.5

# verts
v -1 0.9 1
v -1 0.9 -1
v -1 1 1
v -1 1 -1
v -1 1.1 1
v -1 1.1 -1
v 1 0.9 1
v 1 0.9 -1
v 1 1 1
v 1 1 -1
v 1 1.1 1
v 1 1.1 -1
v -1 0.9 1
v -1 1 1
v -1 1.1 1
v -0.1 1 1
v -0.1 1.1 1
v 0.1 1 1
v 0.1 1.1 1
v 1 0.9 1
v 1 1 1
v 1 1.1 1
v -1 0.9 -1
v -1 1 -1
v -1 1.1 -1
v 1 0.9 -1
v 1 1 -1
v 1 1.1 -1
v -1 0.9 1
v 1 0.9 1
v -1 0.9 -1
v 1 0.9 -1
v -1 1.1 1
v -0.1 1.1 1
v 0.1 1.1 1
v 1 1.1 1
v 0 1.1 -0.1
v 0.1 1.1 -0.1
v -0.1 1.1 -0.2
v 0 1.1 -0.2
v -1 1.1 -1
v 1 1.1 -1

# faces
f 3/3/1 2/3/1 1/3/1
f 4/3/1 2/3/1 3/3/1
f 5/1/1 4/1/1 3/1/1
f 6/1/1 4/1/1 5/1/1
f 7/3/2 8/3/2 9/3/2
f 9/3/2 8/3/2 10/3/2
f 9/1/2 10/1/2 11/1/2
f 11/1/2 10/1/2 12/1/2
f 16/3/3 14/3/3 13/3/3
f 16/1/3 15/1/3 14/1/3
f 17/1/3 15/1/3 16/1/3
f 18/3/3 16/3/3 13/3/3
f 18/2/3 17/2/3 16/2/3
f 19/2/3 17/2/3 18/2/3
f 20/3/3 18/3/3 13/3/3
f 21/1/3 19/1/3 18/1/3
f 21/3/3 18/3/3 20/3/3
f 22/1/3 19/1/3 21/1/3
f 23/3/4 24/3/4 26/3/4
f 24/1/4 25/1/4 27/1/4
f 26/3/4 24/3/4 27/3/4
f 27/1/4 25/1/4 28/1/4
f 31/3/5 30/3/5 29/3/5
f 32/3/5 30/3/5 31/3/5
f 34/2/6 35/2/6 37/2/6
f 35/1/6 36/1/6 38/1/6
f 37/2/6 35/2/6 38/2/6
f 33/1/6 34/1/6 39/1/6
f 34/2/6 37/2/6 39/2/6
f 37/1/6 38/1/6 40/1/6
f 39/2/6 37/2/6 40/2/6
f 33/1/6 39/1/6 41/1/6
f 39/1/6 40/1/6 41/1/6
f 38/1/6 36/1/6 42/1/6
f 41/1/6 40/1/6 42/1/6
f 40/1/6 38/1/6 42/1/6
