# Blender 4.2.2 LTS
# www.blender.org
mtllib Pistol.mtl
o Cube
v -0.241849 0.753680 1.503732
v -0.753681 0.241848 1.503732
v -0.753681 -0.241848 1.503732
v -0.241849 -0.753680 1.503732
v -0.753680 0.393545 -1.352035
v -0.393545 0.753680 -1.352035
v -0.393545 -0.753680 -1.352035
v -0.753680 -0.393545 -1.352035
v -1.000000 0.495574 1.000000
v -0.495574 1.000000 1.000000
v -0.495574 1.000000 -1.000000
v -1.000000 0.495574 -1.000000
v -1.000000 -0.495574 -1.000000
v -0.495574 -1.000000 -1.000000
v -0.495574 -1.000000 1.000000
v -1.000000 -0.495574 1.000000
v -0.241850 0.753680 5.800337
v -0.753682 0.241848 5.800338
v -0.753682 -0.241848 5.800338
v -0.241850 -0.753680 5.800337
v -0.393546 -0.753680 1.352035
v -0.393546 0.753680 1.352035
v -0.753681 0.393545 1.352035
v -0.753681 -0.393545 1.352035
v -0.270503 -0.456626 5.952034
v -0.270503 0.456626 5.952034
v -0.456627 0.270501 5.952034
v -0.456627 -0.270501 5.952034
v -0.172599 -0.537876 2.118863
v -0.172599 0.537876 2.118863
v -0.537877 0.172599 2.118863
v -0.537877 -0.172599 2.118863
v -0.172600 -0.537876 5.185206
v -0.172600 0.537876 5.185206
v -0.537877 0.172599 5.185206
v -0.537877 -0.172599 5.185206
v -0.753682 0.393545 5.952035
v -0.393547 0.753680 5.952035
v -0.393547 -0.753680 5.952035
v -0.753682 -0.393545 5.952035
v -0.456627 0.270501 5.328551
v -0.270502 0.456626 5.328551
v -0.270502 -0.456626 5.328551
v -0.456627 -0.270501 5.328551
v 0.000000 -1.000000 1.000000
v 0.000000 -1.000000 -1.000000
v 0.000000 -0.753680 -1.352035
v 0.000000 0.753680 -1.352035
v 0.000000 1.000000 -1.000000
v 0.000000 1.000000 1.000000
v 0.000000 -0.753680 1.352035
v 0.000000 0.753680 1.352035
v 0.000000 -0.456626 5.952034
v 0.000000 -0.456626 5.328551
v 0.000000 -0.753680 5.800337
v 0.000000 -0.537876 5.185206
v 0.000000 -0.753680 1.503732
v 0.000000 0.753680 1.503732
v 0.000000 -0.753680 5.952034
v 0.000000 0.753680 5.800337
v 0.000000 0.753680 5.952034
v 0.000000 0.537876 2.118863
v 0.000000 0.537876 5.185206
v 0.000000 -0.537876 2.118863
v 0.000000 0.456626 5.952034
v 0.000000 0.456626 5.328551
v 0.241849 0.753680 1.503732
v 0.753681 0.241848 1.503732
v 0.753681 -0.241848 1.503732
v 0.241849 -0.753680 1.503732
v 0.753680 0.393545 -1.352035
v 0.393545 0.753680 -1.352035
v 0.393545 -0.753680 -1.352035
v 0.753680 -0.393545 -1.352035
v 1.000000 0.495574 1.000000
v 0.495574 1.000000 1.000000
v 0.495574 1.000000 -1.000000
v 1.000000 0.495574 -1.000000
v 1.000000 -0.495574 -1.000000
v 0.495574 -1.000000 -1.000000
v 0.495574 -1.000000 1.000000
v 1.000000 -0.495574 1.000000
v 0.241850 0.753680 5.800337
v 0.753682 0.241848 5.800338
v 0.753682 -0.241848 5.800338
v 0.241850 -0.753680 5.800337
v 0.393546 -0.753680 1.352035
v 0.393546 0.753680 1.352035
v 0.753681 0.393545 1.352035
v 0.753681 -0.393545 1.352035
v 0.270503 -0.456626 5.952034
v 0.270503 0.456626 5.952034
v 0.456627 0.270501 5.952034
v 0.456627 -0.270501 5.952034
v 0.172599 -0.537876 2.118863
v 0.172599 0.537876 2.118863
v 0.537877 0.172599 2.118863
v 0.537877 -0.172599 2.118863
v 0.172600 -0.537876 5.185206
v 0.172600 0.537876 5.185206
v 0.537877 0.172599 5.185206
v 0.537877 -0.172599 5.185206
v 0.753682 0.393545 5.952035
v 0.393547 0.753680 5.952035
v 0.393547 -0.753680 5.952035
v 0.753682 -0.393545 5.952035
v 0.456627 0.270501 5.328551
v 0.270502 0.456626 5.328551
v 0.270502 -0.456626 5.328551
v 0.456627 -0.270501 5.328551
vn -0.0000 -1.0000 -0.0000
vn -0.0000 -0.0000 -1.0000
vn -1.0000 -0.0000 -0.0000
vn -0.0000 1.0000 -0.0000
vn -0.7071 0.7071 -0.0000
vn -0.7071 -0.7071 -0.0000
vn -0.5794 0.5794 0.5733
vn -0.5794 0.5794 -0.5733
vn -0.5794 -0.5794 -0.5733
vn -0.5794 -0.5794 0.5733
vn -0.0000 -0.8193 0.5733
vn -0.0000 0.8193 0.5733
vn -0.8193 -0.0000 0.5733
vn -0.0000 0.8193 -0.5733
vn -0.0000 -0.8193 -0.5733
vn -0.8193 -0.0000 -0.5733
vn -0.0000 -0.9436 -0.3310
vn -0.0000 0.9436 -0.3310
vn 0.9522 -0.3055 -0.0000
vn -0.9436 -0.0000 -0.3310
vn -0.3055 0.9522 -0.0000
vn -0.3055 -0.9522 -0.0000
vn -0.0000 -0.9436 0.3310
vn 0.9522 0.3055 -0.0000
vn -0.0000 0.9436 0.3310
vn -0.9436 -0.0000 0.3310
vn -0.0000 -0.0000 1.0000
vn 0.7071 -0.7071 -0.0000
vn 0.7071 0.7071 -0.0000
vn 1.0000 -0.0000 -0.0000
vn 0.5794 0.5794 0.5733
vn 0.5794 0.5794 -0.5733
vn 0.5794 -0.5794 -0.5733
vn 0.5794 -0.5794 0.5733
vn 0.8193 -0.0000 0.5733
vn 0.8193 -0.0000 -0.5733
vn -0.9522 -0.3055 -0.0000
vn 0.9436 -0.0000 -0.3310
vn 0.3055 0.9522 -0.0000
vn 0.3055 -0.9522 -0.0000
vn -0.9522 0.3055 -0.0000
vn 0.9436 -0.0000 0.3310
vt 0.426649 0.217235
vt 0.258424 0.083892
vt 0.266936 0.016891
vt 0.474324 0.176538
vt 0.195165 0.025497
vt 0.213640 0.074481
vt 0.195393 0.120668
vt 0.139619 0.161868
vt 0.090096 0.178291
vt 0.042706 0.157557
vt 0.368852 0.275979
vt 0.277497 0.358551
vt 0.160208 0.196389
vt 0.226837 0.143594
vt 0.029302 0.227082
vt 0.096569 0.224028
vt 0.210859 0.412073
vt 0.162800 0.458373
vt 0.253429 0.461693
vt 0.314847 0.409280
vt 0.710457 0.833444
vt 0.677904 0.886717
vt 0.465220 0.260077
vt 0.411551 0.318228
vt 0.508302 0.224883
vt 0.212602 0.501720
vt 0.932879 0.886794
vt 0.891545 0.870675
vt 0.865361 0.775981
vt 0.916215 0.766135
vt 0.860182 0.706292
vt 0.828822 0.619790
vt 0.849166 0.606409
vt 0.895172 0.692375
vt 0.853142 0.729628
vt 0.797818 0.756786
vt 0.495583 0.263839
vt 0.521319 0.239890
vt 0.254180 0.492438
vt 0.227161 0.516588
vt 0.411350 0.348778
vt 0.345023 0.412153
vt 0.904390 0.715170
vt 0.637725 0.924191
vt 0.654437 0.891438
vt 0.659030 0.935190
vt 0.710310 0.806692
vt 0.768484 0.752560
vt 0.278283 0.588530
vt 0.295651 0.574134
vt 0.573026 0.853024
vt 0.558118 0.871672
vt 0.426657 0.463724
vt 0.457513 0.438599
vt 0.696972 0.708518
vt 0.671724 0.728660
vt 0.572582 0.312208
vt 0.588512 0.296097
vt 0.750723 0.866460
vt 0.723380 0.904519
vt 0.822330 0.798958
vt 0.708032 0.951870
vt 0.819888 0.978348
vt 0.806641 0.936611
vt 0.819212 0.910749
vt 0.863116 0.881840
s 0
usemtl Material
f 15/1/1 14/2/1 46/3/1 45/4/1
f 47/5/2 7/6/2 8/7/2 5/8/2 6/9/2 48/10/2
f 16/11/3 9/12/3 12/13/3 13/14/3
f 49/15/4 11/16/4 10/17/4 50/18/4
f 22/19/5 23/20/5 37/21/5 38/22/5
f 10/17/5 11/16/5 12/13/5 9/12/5
f 14/2/6 15/1/6 16/11/6 13/14/6
f 23/20/7 22/19/7 10/17/7 9/12/7
f 6/9/8 5/8/8 12/13/8 11/16/8
f 8/7/9 7/6/9 14/2/9 13/14/9
f 21/23/10 24/24/10 16/11/10 15/1/10
f 21/23/11 15/1/11 45/4/11 51/25/11
f 50/18/12 10/17/12 22/19/12 52/26/12
f 24/24/13 23/20/13 9/12/13 16/11/13
f 48/10/14 6/9/14 11/16/14 49/15/14
f 14/2/15 7/6/15 47/5/15 46/3/15
f 5/8/16 8/7/16 13/14/16 12/13/16
f 54/27/4 43/28/4 25/29/4 53/30/4
f 20/31/17 33/32/17 56/33/17 55/34/17
f 24/24/6 21/23/6 39/35/6 40/36/6
f 4/37/1 21/23/1 51/25/1 57/38/1
f 52/26/4 22/19/4 1/39/4 58/40/4
f 3/41/3 2/42/3 23/20/3 24/24/3
f 39/35/1 20/31/1 55/34/1 59/43/1
f 60/44/4 17/45/4 38/22/4 61/46/4
f 18/47/3 19/48/3 40/36/3 37/21/3
f 2/42/3 18/47/3 37/21/3 23/20/3
f 17/45/4 1/39/4 22/19/4 38/22/4
f 4/37/1 20/31/1 39/35/1 21/23/1
f 19/48/3 3/41/3 24/24/3 40/36/3
f 62/49/4 30/50/4 34/51/4 63/52/4
f 31/53/3 32/54/3 36/55/3 35/56/3
f 33/32/1 29/57/1 64/58/1 56/33/1
f 63/52/18 34/51/18 17/45/18 60/44/18
f 20/31/19 4/37/19 29/57/19 33/32/19
f 19/48/20 18/47/20 35/56/20 36/55/20
f 3/41/21 19/48/21 36/55/21 32/54/21
f 18/47/22 2/42/22 31/53/22 35/56/22
f 29/57/23 4/37/23 57/38/23 64/58/23
f 1/39/24 17/45/24 34/51/24 30/50/24
f 58/40/25 1/39/25 30/50/25 62/49/25
f 2/42/26 3/41/26 32/54/26 31/53/26
f 27/59/27 26/60/27 38/22/27 37/21/27
f 25/29/27 28/61/27 40/36/27 39/35/27
f 53/30/27 25/29/27 39/35/27 59/43/27
f 61/46/27 38/22/27 26/60/27 65/62/27
f 28/61/27 27/59/27 37/21/27 40/36/27
f 66/63/27 42/64/27 41/65/27 44/66/27 43/28/27 54/27/27
f 26/60/28 27/59/28 41/65/28 42/64/28
f 26/60/1 42/64/1 66/63/1 65/62/1
f 28/61/29 25/29/29 43/28/29 44/66/29
f 27/59/30 28/61/30 44/66/30 41/65/30
f 81/1/1 45/4/1 46/3/1 80/2/1
f 47/5/2 48/10/2 72/9/2 71/8/2 74/7/2 73/6/2
f 82/11/30 79/14/30 78/13/30 75/12/30
f 49/15/4 50/18/4 76/17/4 77/16/4
f 88/19/29 104/22/29 103/21/29 89/20/29
f 76/17/29 75/12/29 78/13/29 77/16/29
f 80/2/28 79/14/28 82/11/28 81/1/28
f 89/20/31 75/12/31 76/17/31 88/19/31
f 72/9/32 77/16/32 78/13/32 71/8/32
f 74/7/33 79/14/33 80/2/33 73/6/33
f 87/23/34 81/1/34 82/11/34 90/24/34
f 87/23/11 51/25/11 45/4/11 81/1/11
f 50/18/12 52/26/12 88/19/12 76/17/12
f 90/24/35 82/11/35 75/12/35 89/20/35
f 48/10/14 49/15/14 77/16/14 72/9/14
f 80/2/15 46/3/15 47/5/15 73/6/15
f 71/8/36 78/13/36 79/14/36 74/7/36
f 54/27/4 53/30/4 91/29/4 109/28/4
f 86/31/17 55/34/17 56/33/17 99/32/17
f 90/24/28 106/36/28 105/35/28 87/23/28
f 70/37/1 57/38/1 51/25/1 87/23/1
f 52/26/4 58/40/4 67/39/4 88/19/4
f 69/41/30 90/24/30 89/20/30 68/42/30
f 105/35/1 59/43/1 55/34/1 86/31/1
f 60/44/4 61/46/4 104/22/4 83/45/4
f 84/47/30 103/21/30 106/36/30 85/48/30
f 68/42/30 89/20/30 103/21/30 84/47/30
f 83/45/4 104/22/4 88/19/4 67/39/4
f 70/37/1 87/23/1 105/35/1 86/31/1
f 85/48/30 106/36/30 90/24/30 69/41/30
f 62/49/4 63/52/4 100/51/4 96/50/4
f 97/53/30 101/56/30 102/55/30 98/54/30
f 99/32/1 56/33/1 64/58/1 95/57/1
f 63/52/18 60/44/18 83/45/18 100/51/18
f 86/31/37 99/32/37 95/57/37 70/37/37
f 85/48/38 102/55/38 101/56/38 84/47/38
f 69/41/39 98/54/39 102/55/39 85/48/39
f 84/47/40 101/56/40 97/53/40 68/42/40
f 95/57/23 64/58/23 57/38/23 70/37/23
f 67/39/41 96/50/41 100/51/41 83/45/41
f 58/40/25 62/49/25 96/50/25 67/39/25
f 68/42/42 97/53/42 98/54/42 69/41/42
f 93/59/27 103/21/27 104/22/27 92/60/27
f 91/29/27 105/35/27 106/36/27 94/61/27
f 53/30/27 59/43/27 105/35/27 91/29/27
f 61/46/27 65/62/27 92/60/27 104/22/27
f 94/61/27 106/36/27 103/21/27 93/59/27
f 66/63/27 54/27/27 109/28/27 110/66/27 107/65/27 108/64/27
f 92/60/6 108/64/6 107/65/6 93/59/6
f 92/60/1 65/62/1 66/63/1 108/64/1
f 94/61/5 110/66/5 109/28/5 91/29/5
f 93/59/3 107/65/3 110/66/3 94/61/3
