# Blender 4.2.2 LTS
# www.blender.org
mtllib Triple.mtl
o Body
v -0.866816 -0.866815 2.949206
v -0.482535 0.994449 -5.703706
v -0.482536 0.029376 -5.191793
v -0.988027 0.988026 1.350478
v -0.976109 -0.624816 1.349663
v -0.240126 -0.616858 5.669562
v -0.666736 1.582793 0.666736
v -1.680450 -0.466964 0.432941
v -0.870914 -0.517390 2.922030
v -0.243908 -0.279619 5.503124
v -0.729332 0.753615 2.971530
v -0.732781 -0.411045 2.948665
v -0.831318 0.855601 1.626372
v -0.432883 0.432862 4.247123
v -0.205223 -0.210986 5.120378
v -0.821291 -0.501432 1.625687
v -1.680449 -0.466964 -2.604881
v -0.666735 1.582793 -2.566736
v -1.680450 0.409622 0.432941
v -1.680449 0.480153 -3.268343
v -0.120223 3.598940 1.072253
v -0.120223 3.598940 0.658389
v 0.000000 1.582793 0.666736
v 0.000000 3.598940 1.072253
v 0.000000 0.994449 -5.703706
v 0.000000 0.029376 -5.191793
v 0.000000 -1.000000 1.000000
v 0.000000 -1.000000 -2.900000
v 0.000000 -0.866815 2.949206
v 0.000000 -0.616858 5.669562
v 0.000000 -0.279619 5.503124
v 0.000000 -0.210986 5.120378
v 0.000000 0.988026 1.350478
v 0.000000 0.855601 1.626372
v 0.000000 1.000000 1.000000
v 0.000000 0.753615 2.971530
v 0.000000 0.432862 4.247123
v 0.000000 1.102383 -4.372733
v 0.000000 1.582793 -2.566736
v 0.000000 3.598940 0.658389
v -1.000000 -1.000000 1.000000
v -0.999999 -1.000000 -2.900000
v -1.000000 1.000000 1.000000
v -0.999999 1.102383 -4.372733
v -3.517666 -0.108841 1.085039
v -3.517666 -0.108841 0.665059
v -3.517666 0.079200 1.085039
v -3.517666 0.075428 0.669971
v 0.866816 -0.866815 2.949206
v 0.482535 0.994449 -5.703706
v 0.482536 0.029376 -5.191793
v 0.988027 0.988026 1.350478
v 0.976109 -0.624816 1.349663
v 0.240126 -0.616858 5.669562
v 0.666736 1.582793 0.666736
v 1.680450 -0.466964 0.432941
v 0.870914 -0.517390 2.922030
v 0.243908 -0.279619 5.503124
v 0.729332 0.753615 2.971530
v 0.732781 -0.411045 2.948665
v 0.831318 0.855601 1.626372
v 0.432883 0.432862 4.247123
v 0.205223 -0.210986 5.120378
v 0.821291 -0.501432 1.625687
v 1.680449 -0.466964 -2.604881
v 0.666735 1.582793 -2.566736
v 1.680450 0.409622 0.432941
v 1.680449 0.480153 -3.268343
v 0.120223 3.598940 1.072253
v 0.120223 3.598940 0.658389
v 1.000000 -1.000000 1.000000
v 0.999999 -1.000000 -2.900000
v 1.000000 1.000000 1.000000
v 0.999999 1.102383 -4.372733
v 3.517666 -0.108841 1.085039
v 3.517666 -0.108841 0.665059
v 3.517666 0.079200 1.085039
v 3.517666 0.075428 0.669971
vn -0.0000 -0.1972 0.9804
vn -0.8605 -0.2563 -0.4403
vn -0.0000 -0.4686 -0.8834
vn -0.0000 -1.0000 -0.0000
vn -0.0000 -0.9958 0.0915
vn -0.0000 0.9843 0.1765
vn -0.6176 0.7827 0.0779
vn -0.0000 -0.9977 0.0682
vn -0.0000 0.9015 0.4327
vn -0.6083 0.7936 -0.0135
vn -0.9986 -0.0033 0.0529
vn -0.0000 0.9994 0.0341
vn -0.9977 -0.0029 0.0677
vn -0.0000 0.4426 0.8967
vn -0.9729 0.0523 0.2253
vn -0.9975 -0.0033 0.0712
vn -0.0000 0.9971 0.0756
vn -0.0000 0.8049 0.5934
vn -0.9726 -0.0115 0.2321
vn -0.0000 0.9698 0.2439
vn -0.8709 -0.0067 0.4915
vn -0.0000 -0.9122 -0.4097
vn -0.9261 -0.2049 -0.3167
vn -0.0000 0.9967 -0.0808
vn -0.8511 0.5249 0.0062
vn -0.0000 0.4964 0.8681
vn -0.0000 0.9664 -0.2571
vn -0.0000 1.0000 -0.0000
vn -0.0000 0.8479 -0.5301
vn -0.9652 0.2616 -0.0000
vn -0.6167 -0.7872 -0.0000
vn -0.6402 -0.0000 0.7682
vn -0.6620 0.7493 0.0143
vn -0.6269 -0.4470 -0.6381
vn -1.0000 -0.0000 -0.0000
vn 0.3345 -0.0000 0.9424
vn -0.1769 0.9841 0.0160
vn -0.1913 -0.9815 -0.0000
vn 0.8605 -0.2563 -0.4403
vn 0.6176 0.7826 0.0779
vn 0.6083 0.7936 -0.0135
vn 0.9986 -0.0033 0.0529
vn 0.9977 -0.0029 0.0677
vn 0.9729 0.0523 0.2253
vn 0.9975 -0.0033 0.0712
vn 0.9726 -0.0115 0.2321
vn 0.8709 -0.0067 0.4915
vn 0.9261 -0.2049 -0.3167
vn 0.8511 0.5249 0.0062
vn 0.9652 0.2616 -0.0000
vn 0.6167 -0.7872 -0.0000
vn 0.6402 -0.0000 0.7682
vn 0.6620 0.7493 0.0143
vn 0.6269 -0.4470 -0.6381
vn 1.0000 -0.0000 -0.0000
vn -0.3345 -0.0000 0.9424
vn 0.1769 0.9841 0.0160
vn 0.1913 -0.9815 -0.0000
vt 0.623444 0.769957
vt 0.613879 0.766365
vt 0.514857 0.627749
vt 0.590869 0.622966
vt 0.186896 0.796326
vt 0.158917 0.726166
vt 0.270661 0.626136
vt 0.276005 0.630702
vt 0.067636 0.915794
vt 0.104293 0.967641
vt 0.092767 0.999921
vt 0.028640 0.935244
vt 0.264212 0.425357
vt 0.091905 0.725087
vt 0.000079 0.708499
vt 0.173170 0.362114
vt 0.546065 0.028087
vt 0.391154 0.245169
vt 0.313093 0.164142
vt 0.548480 0.000079
vt 0.591641 0.079185
vt 0.566938 0.081196
vt 0.566583 0.049109
vt 0.592925 0.032583
vt 0.422641 0.268517
vt 0.439518 0.273154
vt 0.600796 0.517898
vt 0.496894 0.514504
vt 0.508108 0.478571
vt 0.603458 0.486390
vt 0.324878 0.412839
vt 0.362181 0.391904
vt 0.487080 0.553420
vt 0.595934 0.559444
vt 0.546156 0.326102
vt 0.623444 0.330595
vt 0.615046 0.194784
vt 0.572475 0.200535
vt 0.167898 0.909917
vt 0.198554 0.986199
vt 0.296730 0.844381
vt 0.324758 0.896221
vt 0.599456 0.792903
vt 0.594441 0.785131
vt 0.279705 0.530256
vt 0.362679 0.580573
vt 0.278323 0.619718
vt 0.280734 0.621871
s 0
usemtl Material
f 24/1/1 21/2/1 7/3/1 23/4/1
f 20/5/2 17/6/2 46/7/2 48/8/2
f 3/9/3 2/10/3 25/11/3 26/12/3
f 41/13/4 42/14/4 28/15/4 27/16/4
f 6/17/5 1/18/5 29/19/5 30/20/5
f 32/21/6 15/22/6 10/23/6 31/24/6
f 9/25/7 10/23/7 15/22/7 12/26/7
f 1/18/8 41/13/8 27/16/8 29/19/8
f 33/27/9 4/28/9 13/29/9 34/30/9
f 5/31/10 9/25/10 12/26/10 16/32/10
f 5/31/11 4/28/11 43/33/11 41/13/11
f 35/34/12 43/33/12 4/28/12 33/27/12
f 9/25/13 5/31/13 41/13/13 1/18/13
f 31/24/14 10/23/14 6/17/14 30/20/14
f 10/23/15 9/25/15 1/18/15 6/17/15
f 12/26/16 11/35/16 13/29/16 16/32/16
f 34/30/17 13/29/17 11/35/17 36/36/17
f 37/37/18 14/38/18 15/22/18 32/21/18
f 11/35/19 12/26/19 15/22/19 14/38/19
f 36/36/20 11/35/20 14/38/20 37/37/20
f 4/28/21 5/31/21 16/32/21 13/29/21
f 42/14/22 3/9/22 26/12/22 28/15/22
f 2/10/23 3/9/23 42/14/23 44/39/23
f 25/11/24 2/10/24 44/39/24 38/40/24
f 7/3/25 18/41/25 44/39/25 43/33/25
f 23/4/26 7/3/26 43/33/26 35/34/26
f 38/40/27 44/39/27 18/41/27 39/42/27
f 40/43/28 22/44/28 21/2/28 24/1/28
f 39/42/29 18/41/29 22/44/29 40/43/29
f 18/41/30 7/3/30 21/2/30 22/44/30
f 8/45/31 17/6/31 42/14/31 41/13/31
f 19/46/32 8/45/32 41/13/32 43/33/32
f 20/5/33 19/46/33 43/33/33 44/39/33
f 17/6/34 20/5/34 44/39/34 42/14/34
f 45/47/35 47/48/35 48/8/35 46/7/35
f 8/45/36 19/46/36 47/48/36 45/47/36
f 19/46/37 20/5/37 48/8/37 47/48/37
f 17/6/38 8/45/38 45/47/38 46/7/38
f 24/1/1 23/4/1 55/3/1 69/2/1
f 68/5/39 78/8/39 76/7/39 65/6/39
f 51/9/3 26/12/3 25/11/3 50/10/3
f 71/13/4 27/16/4 28/15/4 72/14/4
f 54/17/5 30/20/5 29/19/5 49/18/5
f 32/21/6 31/24/6 58/23/6 63/22/6
f 57/25/40 60/26/40 63/22/40 58/23/40
f 49/18/8 29/19/8 27/16/8 71/13/8
f 33/27/9 34/30/9 61/29/9 52/28/9
f 53/31/41 64/32/41 60/26/41 57/25/41
f 53/31/42 71/13/42 73/33/42 52/28/42
f 35/34/12 33/27/12 52/28/12 73/33/12
f 57/25/43 49/18/43 71/13/43 53/31/43
f 31/24/14 30/20/14 54/17/14 58/23/14
f 58/23/44 54/17/44 49/18/44 57/25/44
f 60/26/45 64/32/45 61/29/45 59/35/45
f 34/30/17 36/36/17 59/35/17 61/29/17
f 37/37/18 32/21/18 63/22/18 62/38/18
f 59/35/46 62/38/46 63/22/46 60/26/46
f 36/36/20 37/37/20 62/38/20 59/35/20
f 52/28/47 61/29/47 64/32/47 53/31/47
f 72/14/22 28/15/22 26/12/22 51/9/22
f 50/10/48 74/39/48 72/14/48 51/9/48
f 25/11/24 38/40/24 74/39/24 50/10/24
f 55/3/49 73/33/49 74/39/49 66/41/49
f 23/4/26 35/34/26 73/33/26 55/3/26
f 38/40/27 39/42/27 66/41/27 74/39/27
f 40/43/28 24/1/28 69/2/28 70/44/28
f 39/42/29 40/43/29 70/44/29 66/41/29
f 66/41/50 70/44/50 69/2/50 55/3/50
f 56/45/51 71/13/51 72/14/51 65/6/51
f 67/46/52 73/33/52 71/13/52 56/45/52
f 68/5/53 74/39/53 73/33/53 67/46/53
f 65/6/54 72/14/54 74/39/54 68/5/54
f 75/47/55 76/7/55 78/8/55 77/48/55
f 56/45/56 75/47/56 77/48/56 67/46/56
f 67/46/57 77/48/57 78/8/57 68/5/57
f 65/6/58 76/7/58 75/47/58 56/45/58
