# MagicaVoxel @ Ephtracy

# group
o 

# material
mtllib Tile2.0.mtl
usemtl palette

# normals
vn -1 0 0
vn 1 0 0
vn 0 0 1
vn 0 0 -1
vn 0 -1 0
vn 0 1 0

# texcoords
vt 0.970703 0.5
vt 0.978516 0.5
vt 0.986328 0.5

# verts
v -1 0.9 1
v -1 0.9 -0.1
v -1 1 1
v -1 1 0.3
v -1 1 0
v -1 1.1 1
v -1 1.1 0.3
v -1 1.1 0.1
v -1 2 0.1
v -1 2 0
v -1 2 -0.1
v 1 0.9 1
v 1 0.9 -0.1
v 1 1 1
v 1 1 0.3
v 1 1 0
v 1 1.1 1
v 1 1.1 0.3
v 1 1.1 0.1
v 1 2 0.1
v 1 2 0
v 1 2 -0.1
v -1 0.9 1
v -1 1 1
v -1 1.1 1
v 1 0.9 1
v 1 1 1
v 1 1.1 1
v -1 1.1 0.1
v -1 2 0.1
v 1 1.1 0.1
v 1 2 0.1
v -1 0.9 -0.1
v -1 2 -0.1
v 1 0.9 -0.1
v 1 2 -0.1
v -1 0.9 1
v 1 0.9 1
v -1 0.9 -0.1
v 1 0.9 -0.1
v -1 1.1 1
v 1 1.1 1
v -1 1.1 0.3
v 1 1.1 0.3
v -1 1.1 0.1
v 1 1.1 0.1
v -1 2 0.1
v 1 2 0.1
v -1 2 0
v 1 2 0
v -1 2 -0.1
v 1 2 -0.1

# faces
f 3/3/1 2/3/1 1/3/1
f 4/3/1 2/3/1 3/3/1
f 5/3/1 2/3/1 4/3/1
f 6/1/1 4/1/1 3/1/1
f 7/2/1 5/2/1 4/2/1
f 7/1/1 4/1/1 6/1/1
f 8/2/1 5/2/1 7/2/1
f 9/2/1 5/2/1 8/2/1
f 10/3/1 2/3/1 5/3/1
f 10/2/1 5/2/1 9/2/1
f 11/3/1 2/3/1 10/3/1
f 12/3/2 13/3/2 14/3/2
f 14/3/2 13/3/2 15/3/2
f 15/3/2 13/3/2 16/3/2
f 14/1/2 15/1/2 17/1/2
f 15/2/2 16/2/2 18/2/2
f 17/1/2 15/1/2 18/1/2
f 18/2/2 16/2/2 19/2/2
f 19/2/2 16/2/2 20/2/2
f 16/3/2 13/3/2 21/3/2
f 20/2/2 16/2/2 21/2/2
f 21/3/2 13/3/2 22/3/2
f 26/3/3 24/3/3 23/3/3
f 27/1/3 25/1/3 24/1/3
f 27/3/3 24/3/3 26/3/3
f 28/1/3 25/1/3 27/1/3
f 31/2/3 30/2/3 29/2/3
f 32/2/3 30/2/3 31/2/3
f 33/3/4 34/3/4 35/3/4
f 35/3/4 34/3/4 36/3/4
f 39/3/5 38/3/5 37/3/5
f 40/3/5 38/3/5 39/3/5
f 41/1/6 42/1/6 43/1/6
f 43/1/6 42/1/6 44/1/6
f 43/2/6 44/2/6 45/2/6
f 45/2/6 44/2/6 46/2/6
f 47/2/6 48/2/6 49/2/6
f 49/2/6 48/2/6 50/2/6
f 49/3/6 50/3/6 51/3/6
f 51/3/6 50/3/6 52/3/6
