# Blender 4.2.2 LTS
# www.blender.org
mtllib Turret.mtl
o Cube
v -0.311428 0.704584 -0.646226
v -0.400595 0.489316 -0.861495
v -0.692819 0.696884 -0.201465
v -0.896884 0.492819 -0.285992
v -0.637453 0.684064 0.315577
v -0.835471 0.486046 0.397599
v -0.315577 0.684064 0.637453
v -0.397599 0.486046 0.835471
v -0.876360 -0.500000 -0.345814
v -1.000000 -0.376360 -0.397028
v -0.397028 -0.376360 -1.000000
v -0.345814 -0.500000 -0.876360
v -0.345814 -0.500000 0.876360
v -0.407303 -0.276762 0.869422
v -0.869422 -0.276762 0.407303
v -0.876360 -0.500000 0.345814
v 0.000000 0.478302 -1.000000
v 0.000000 -0.376360 -1.000000
v 0.000000 0.800000 -0.678302
v 0.000000 -0.500000 -0.876360
v -0.225701 -0.376360 1.000000
v -0.225701 0.478302 1.000000
v -0.225701 0.800000 0.678302
v -0.225701 -0.500000 0.876360
v 0.000000 -0.500000 0.000000
v -0.225701 -0.500000 0.000000
v -0.225701 0.800000 0.000000
v 0.000000 0.800000 0.000000
v -0.896884 0.492819 0.285992
v -0.407303 0.378704 0.869422
v -0.263776 0.800000 0.678302
v -0.692819 0.696884 0.201465
v -0.861495 0.489316 -0.400595
v -0.869422 0.378704 0.407303
v -0.678302 0.800000 0.263776
v -0.646226 0.704584 -0.311428
v -0.397028 0.478302 -1.000000
v -1.000000 0.478302 -0.397028
v -0.678302 0.800000 -0.263776
v -0.263776 0.800000 -0.678302
v -1.000000 0.478302 0.397028
v -1.000000 -0.376360 0.397028
v -0.397028 -0.376360 1.000000
v -0.397028 0.478302 1.000000
v 0.311428 0.704584 -0.646226
v 0.400595 0.489316 -0.861495
v 0.692819 0.696884 -0.201465
v 0.896884 0.492819 -0.285992
v 0.637453 0.684064 0.315577
v 0.835471 0.486046 0.397599
v 0.315577 0.684064 0.637453
v 0.397599 0.486046 0.835471
v 0.876360 -0.500000 -0.345814
v 1.000000 -0.376360 -0.397028
v 0.397028 -0.376360 -1.000000
v 0.345814 -0.500000 -0.876360
v 0.345814 -0.500000 0.876360
v 0.407303 -0.276762 0.869422
v 0.869422 -0.276762 0.407303
v 0.876360 -0.500000 0.345814
v 0.225701 -0.376360 1.000000
v 0.225701 0.478302 1.000000
v 0.225701 0.800000 0.678302
v 0.225701 -0.500000 0.876360
v 0.225701 -0.500000 0.000000
v 0.225701 0.800000 0.000000
v 0.896884 0.492819 0.285992
v 0.407303 0.378704 0.869422
v 0.263776 0.800000 0.678302
v 0.692819 0.696884 0.201465
v 0.861495 0.489316 -0.400595
v 0.869422 0.378704 0.407303
v 0.678302 0.800000 0.263776
v 0.646226 0.704584 -0.311428
v 0.397028 0.478302 -1.000000
v 1.000000 0.478302 -0.397028
v 0.678302 0.800000 -0.263776
v 0.263776 0.800000 -0.678302
v 1.000000 0.478302 0.397028
v 1.000000 -0.376360 0.397028
v 0.397028 -0.376360 1.000000
v 0.397028 0.478302 1.000000
vn -0.0000 -0.0000 -1.0000
vn -1.0000 -0.0000 -0.0000
vn -0.7071 -0.0000 -0.7071
vn -0.7071 -0.0000 0.7071
vn -0.0000 -0.0000 1.0000
vn -0.5000 0.7071 0.5000
vn -0.5000 0.7071 -0.5000
vn -0.0000 0.7071 -0.7071
vn -0.7071 0.7071 -0.0000
vn -0.0000 0.7071 0.7071
vn -0.0000 -1.0000 -0.0000
vn -0.5000 -0.7071 0.5000
vn -0.5000 -0.7071 -0.5000
vn -0.0000 -0.7071 -0.7071
vn -0.7071 -0.7071 -0.0000
vn -0.0000 -0.7071 0.7071
vn -0.0000 1.0000 -0.0000
vn 1.0000 -0.0000 -0.0000
vn -0.0471 0.9978 0.0471
vn -0.9157 0.4013 0.0221
vn -0.7055 0.0666 0.7055
vn -0.0221 0.4013 0.9157
vn -0.1394 0.9902 -0.0000
vn -0.6844 0.4452 -0.5774
vn -0.6844 0.4452 0.5774
vn -0.9902 0.1394 -0.0000
vn -0.0811 0.9934 -0.0811
vn -0.0574 0.4305 -0.9007
vn -0.7024 0.1147 -0.7024
vn -0.9007 0.4305 -0.0574
vn -0.0784 -0.0000 0.9969
vn -0.5377 0.6495 0.5377
vn -0.9969 -0.0000 0.0784
vn -0.5377 -0.6495 0.5377
vn 0.7071 -0.0000 -0.7071
vn 0.7071 -0.0000 0.7071
vn 0.5000 0.7071 0.5000
vn 0.5000 0.7071 -0.5000
vn 0.7071 0.7071 -0.0000
vn 0.5000 -0.7071 0.5000
vn 0.5000 -0.7071 -0.5000
vn 0.7071 -0.7071 -0.0000
vn 0.0471 0.9978 0.0471
vn 0.9157 0.4013 0.0221
vn 0.7055 0.0666 0.7055
vn 0.0221 0.4013 0.9157
vn 0.1394 0.9902 -0.0000
vn 0.6844 0.4452 -0.5774
vn 0.6844 0.4452 0.5774
vn 0.9902 0.1394 -0.0000
vn 0.0811 0.9934 -0.0811
vn 0.0574 0.4305 -0.9007
vn 0.7024 0.1147 -0.7024
vn 0.9007 0.4305 -0.0574
vn 0.0784 -0.0000 0.9969
vn 0.5377 0.6495 0.5377
vn 0.9969 -0.0000 0.0784
vn 0.5377 -0.6495 0.5377
vt 0.573843 0.865062
vt 0.573843 0.613748
vt 0.690589 0.613748
vt 0.690589 0.865062
vt 0.004420 0.779961
vt 0.004420 0.528647
vt 0.237912 0.528647
vt 0.237912 0.779961
vt 0.521699 0.395524
vt 0.521699 0.646838
vt 0.270953 0.646838
vt 0.270953 0.395524
vt 0.573843 0.604909
vt 0.573843 0.412169
vt 0.766015 0.412169
vt 0.766015 0.604909
vt 0.545276 0.655678
vt 0.545276 0.906991
vt 0.494898 0.906991
vt 0.494898 0.655678
vt 0.782137 0.162390
vt 0.782137 0.028538
vt 0.864483 0.004420
vt 0.864483 0.186509
vt 0.360472 0.681897
vt 0.360472 0.821123
vt 0.270953 0.847342
vt 0.270953 0.655678
vt 0.486058 0.789456
vt 0.369312 0.789456
vt 0.408495 0.655678
vt 0.486058 0.655678
vt 0.866998 0.195348
vt 0.866998 0.363540
vt 0.782137 0.338685
vt 0.782137 0.220203
vt 0.004420 0.788800
vt 0.015616 0.788800
vt 0.054798 0.922578
vt 0.004420 0.922578
vt 0.070787 0.004420
vt 0.106107 0.004420
vt 0.262114 0.160427
vt 0.262114 0.363800
vt 0.106107 0.519807
vt 0.004420 0.519807
vt 0.004420 0.262114
vt 0.070787 0.262114
vt 0.750844 0.628808
vt 0.750844 0.849435
vt 0.699428 0.864494
vt 0.699429 0.613748
vt 0.901477 0.427228
vt 0.901477 0.647856
vt 0.850061 0.662915
vt 0.850062 0.412169
vt 0.158060 0.788800
vt 0.158060 0.890487
vt 0.106644 0.905546
vt 0.106644 0.788800
vt 0.850061 0.905246
vt 0.850061 0.671755
vt 0.901477 0.686814
vt 0.901477 0.890187
vt 0.908642 0.055835
vt 0.873323 0.055835
vt 0.873323 0.004420
vt 0.923701 0.004420
vt 0.573843 0.126311
vt 0.695734 0.004420
vt 0.706930 0.004420
vt 0.706930 0.203875
vt 0.773298 0.403329
vt 0.695734 0.403329
vt 0.773298 0.203875
vt 0.774855 0.794434
vt 0.774855 0.412169
vt 0.841222 0.412169
vt 0.841222 0.794434
vt 0.565003 0.350329
vt 0.528647 0.386685
vt 0.470408 0.004420
vt 0.565003 0.099015
vt 0.270953 0.386685
vt 0.270953 0.004420
vt 0.573843 0.281438
vt 0.530539 0.611942
vt 0.530539 0.429853
vt 0.564706 0.395524
vt 0.564706 0.646270
vt 0.403479 0.817560
vt 0.403479 0.903365
vt 0.369312 0.937693
vt 0.369312 0.798295
vt 0.097805 0.808065
vt 0.097805 0.941916
vt 0.063638 0.961181
vt 0.063638 0.788800
vt 0.412318 0.903365
vt 0.412318 0.817560
vt 0.446485 0.798295
vt 0.446485 0.937693
vt 0.957671 0.873164
vt 0.957671 0.704972
vt 0.988292 0.672322
vt 0.988292 0.905814
vt 0.485945 0.816618
vt 0.485945 0.905043
vt 0.455325 0.937693
vt 0.455325 0.798295
vt 0.774854 0.910022
vt 0.774854 0.821596
vt 0.805475 0.803274
vt 0.805475 0.942672
vt 0.234603 0.807123
vt 0.234603 0.925604
vt 0.203982 0.943927
vt 0.203982 0.788800
vt 0.957671 0.633374
vt 0.957671 0.441710
vt 0.985915 0.412169
vt 0.985915 0.662915
vt 0.299196 0.872760
vt 0.299196 0.966040
vt 0.270953 0.995580
vt 0.270953 0.856182
vt 0.195143 0.805378
vt 0.195143 0.944603
vt 0.166900 0.961181
vt 0.166900 0.788800
vt 0.308036 0.966040
vt 0.308036 0.872760
vt 0.336279 0.856182
vt 0.336279 0.995580
vt 0.875837 0.334253
vt 0.875837 0.141513
vt 0.914352 0.112226
vt 0.914352 0.363540
vt 0.910317 0.893781
vt 0.910317 0.701609
vt 0.948832 0.672322
vt 0.948832 0.923068
vt 0.948832 0.441456
vt 0.948832 0.634196
vt 0.910317 0.663483
vt 0.910317 0.412169
vt 0.961707 0.141513
vt 0.961707 0.333685
vt 0.923192 0.362972
vt 0.923192 0.112226
s 0
usemtl Material
f 11/1/1 37/2/1 17/3/1 18/4/1
f 42/5/2 41/6/2 38/7/2 10/8/2
f 37/9/3 11/10/3 10/11/3 38/12/3
f 14/13/4 30/14/4 34/15/4 15/16/4
f 44/17/5 43/18/5 21/19/5 22/20/5
f 7/21/6 5/22/6 6/23/6 8/24/6
f 36/25/7 1/26/7 2/27/7 33/28/7
f 17/29/8 37/30/8 40/31/8 19/32/8
f 4/33/9 29/34/9 32/35/9 3/36/9
f 23/37/10 31/38/10 44/39/10 22/40/10
f 24/41/11 13/42/11 16/43/11 9/44/11 12/45/11 20/46/11 25/47/11 26/48/11
f 16/49/12 13/50/12 43/51/12 42/52/12
f 12/53/13 9/54/13 10/55/13 11/56/13
f 20/57/14 12/58/14 11/59/14 18/60/14
f 42/61/15 10/62/15 9/63/15 16/64/15
f 13/65/16 24/66/16 21/67/16 43/68/16
f 35/69/17 31/70/17 23/71/17 27/72/17
f 19/73/17 40/74/17 27/72/17 28/75/17
f 25/76/5 28/77/5 27/78/5 26/79/5
f 21/80/18 24/81/18 23/82/18 22/83/18
f 26/84/18 27/85/18 23/82/18 24/81/18
f 40/74/17 39/86/17 35/69/17 27/72/17
f 8/87/19 6/88/19 41/89/19 44/90/19
f 7/91/20 8/92/20 44/93/20 31/94/20
f 5/95/21 7/96/21 31/97/21 35/98/21
f 6/99/22 5/100/22 35/101/22 41/102/22
f 29/103/23 4/104/23 38/105/23 41/106/23
f 32/107/24 29/108/24 41/109/24 35/110/24
f 4/111/25 3/112/25 39/113/25 38/114/25
f 3/115/26 32/116/26 35/117/26 39/118/26
f 33/119/27 2/120/27 37/121/27 38/122/27
f 36/123/28 33/124/28 38/125/28 39/126/28
f 1/127/29 36/128/29 39/129/29 40/130/29
f 2/131/30 1/132/30 40/133/30 37/134/30
f 15/135/31 34/136/31 41/137/31 42/138/31
f 14/139/32 15/140/32 42/141/32 43/142/32
f 30/143/33 14/144/33 43/145/33 44/146/33
f 34/147/34 30/148/34 44/149/34 41/150/34
f 55/1/1 18/4/1 17/3/1 75/2/1
f 80/5/18 54/8/18 76/7/18 79/6/18
f 75/9/35 76/12/35 54/11/35 55/10/35
f 58/13/36 59/16/36 72/15/36 68/14/36
f 82/17/5 62/20/5 61/19/5 81/18/5
f 51/21/37 52/24/37 50/23/37 49/22/37
f 74/25/38 71/28/38 46/27/38 45/26/38
f 17/29/8 19/32/8 78/31/8 75/30/8
f 48/33/39 47/36/39 70/35/39 67/34/39
f 63/37/10 62/40/10 82/39/10 69/38/10
f 64/41/11 65/48/11 25/47/11 20/46/11 56/45/11 53/44/11 60/43/11 57/42/11
f 60/49/40 80/52/40 81/51/40 57/50/40
f 56/53/41 55/56/41 54/55/41 53/54/41
f 20/57/14 18/60/14 55/59/14 56/58/14
f 80/61/42 60/64/42 53/63/42 54/62/42
f 57/65/16 81/68/16 61/67/16 64/66/16
f 73/69/17 66/72/17 63/71/17 69/70/17
f 19/73/17 28/75/17 66/72/17 78/74/17
f 25/76/5 65/79/5 66/78/5 28/77/5
f 61/80/2 62/83/2 63/82/2 64/81/2
f 65/84/2 64/81/2 63/82/2 66/85/2
f 78/74/17 66/72/17 73/69/17 77/86/17
f 52/87/43 82/90/43 79/89/43 50/88/43
f 51/91/44 69/94/44 82/93/44 52/92/44
f 49/95/45 73/98/45 69/97/45 51/96/45
f 50/99/46 79/102/46 73/101/46 49/100/46
f 67/103/47 79/106/47 76/105/47 48/104/47
f 70/107/48 73/110/48 79/109/48 67/108/48
f 48/111/49 76/114/49 77/113/49 47/112/49
f 47/115/50 77/118/50 73/117/50 70/116/50
f 71/119/51 76/122/51 75/121/51 46/120/51
f 74/123/52 77/126/52 76/125/52 71/124/52
f 45/127/53 78/130/53 77/129/53 74/128/53
f 46/131/54 75/134/54 78/133/54 45/132/54
f 59/135/55 80/138/55 79/137/55 72/136/55
f 58/139/56 81/142/56 80/141/56 59/140/56
f 68/143/57 82/146/57 81/145/57 58/144/57
f 72/147/58 79/150/58 82/149/58 68/148/58
