# MagicaVoxel @ Ephtracy

# group
o 

# material
mtllib Tile3.mtl
usemtl palette

# normals
vn -1 0 0
vn 1 0 0
vn 0 0 1
vn 0 0 -1
vn 0 -1 0
vn 0 1 0

# texcoords
vt 0.970703 0.5
vt 0.974609 0.5

# verts
v -0.5 0.4 0.1
v -0.5 0.4 -0.5
v -0.5 0.5 -1.49012e-08
v -0.5 0.5 -0.5
v -0.5 0.6 -0.1
v -0.5 0.6 -0.5
v -0.5 1 0.1
v -0.5 1 -1.49012e-08
v -0.5 1 -0.1
v -0.1 0.6 -0.1
v -0.1 0.6 -0.5
v -0.1 1 -0.1
v -0.1 1 -0.5
v 0.1 0.4 0.1
v 0.1 0.4 -0.5
v 0.1 1 0.1
v 0.1 1 -0.5
v -0.5 0.4 0.1
v -0.5 1 0.1
v 0.1 0.4 0.1
v 0.1 1 0.1
v -0.5 0.6 -0.1
v -0.5 1 -0.1
v -0.1 0.6 -0.1
v -0.1 1 -0.1
v -0.5 0.4 -0.5
v -0.5 0.5 -0.5
v -0.5 0.6 -0.5
v -0.1 0.6 -0.5
v -0.1 1 -0.5
v 0 0.5 -0.5
v 0 1 -0.5
v 0.1 0.4 -0.5
v 0.1 1 -0.5
v -0.5 0.4 0.1
v 0.1 0.4 0.1
v -0.5 0.4 -0.5
v 0.1 0.4 -0.5
v -0.5 0.6 -0.1
v -0.1 0.6 -0.1
v -0.5 0.6 -0.5
v -0.1 0.6 -0.5
v -0.5 1 0.1
v 0.1 1 0.1
v -0.5 1 -1.49012e-08
v 0 1 -1.49012e-08
v -0.5 1 -0.1
v -0.1 1 -0.1
v -0.1 1 -0.5
v 0 1 -0.5
v 0.1 1 -0.5

# faces
f 3/1/1 2/1/1 1/1/1
f 4/1/1 2/1/1 3/1/1
f 5/2/1 4/2/1 3/2/1
f 6/2/1 4/2/1 5/2/1
f 7/1/1 3/1/1 1/1/1
f 8/2/1 5/2/1 3/2/1
f 8/1/1 3/1/1 7/1/1
f 9/2/1 5/2/1 8/2/1
f 12/2/1 11/2/1 10/2/1
f 13/2/1 11/2/1 12/2/1
f 14/1/2 15/1/2 16/1/2
f 16/1/2 15/1/2 17/1/2
f 20/1/3 19/1/3 18/1/3
f 21/1/3 19/1/3 20/1/3
f 22/2/4 23/2/4 24/2/4
f 24/2/4 23/2/4 25/2/4
f 27/2/4 28/2/4 29/2/4
f 26/1/4 27/1/4 31/1/4
f 29/2/4 30/2/4 31/2/4
f 27/2/4 29/2/4 31/2/4
f 31/2/4 30/2/4 32/2/4
f 26/1/4 31/1/4 33/1/4
f 31/1/4 32/1/4 33/1/4
f 33/1/4 32/1/4 34/1/4
f 37/1/5 36/1/5 35/1/5
f 38/1/5 36/1/5 37/1/5
f 39/2/6 40/2/6 41/2/6
f 41/2/6 40/2/6 42/2/6
f 43/1/6 44/1/6 45/1/6
f 45/1/6 44/1/6 46/1/6
f 45/2/6 46/2/6 47/2/6
f 47/2/6 46/2/6 48/2/6
f 48/2/6 46/2/6 49/2/6
f 46/1/6 44/1/6 50/1/6
f 49/2/6 46/2/6 50/2/6
f 50/1/6 44/1/6 51/1/6
