# MagicaVoxel @ Ephtracy

# group
o 

# material
mtllib Tile1.1.mtl
usemtl palette

# normals
vn -1 0 0
vn 1 0 0
vn 0 0 1
vn 0 0 -1
vn 0 -1 0
vn 0 1 0

# texcoords
vt 0.939453 0.5
vt 0.970703 0.5
vt 0.974609 0.5
vt 0.986328 0.5

# verts
v -1 0.9 1
v -1 0.9 -1
v -1 1 1
v -1 1 -1
v -1 1.1 1
v -1 1.1 -1
v -0.8 1.3 0.7
v -0.8 1.3 0.6
v -0.8 1.5 0.7
v -0.8 1.5 0.6
v -0.7 1.1 0.7
v -0.7 1.1 0.6
v -0.7 1.3 0.8
v -0.7 1.3 0.7
v -0.7 1.3 0.6
v -0.7 1.3 0.5
v -0.7 1.5 0.8
v -0.7 1.5 0.7
v -0.7 1.5 0.6
v -0.7 1.5 0.5
v -0.7 1.6 0.7
v -0.7 1.6 0.6
v -0.6 1.3 -0.5
v -0.6 1.3 -0.6
v -0.6 1.4 -0.5
v -0.6 1.4 -0.6
v -0.5 1.3 -0.4
v -0.5 1.3 -0.5
v -0.5 1.3 -0.6
v -0.5 1.3 -0.7
v -0.5 1.4 -0.4
v -0.5 1.4 -0.5
v -0.5 1.4 -0.6
v -0.5 1.4 -0.7
v -0.5 1.6 -0.5
v -0.5 1.6 -0.6
v -0.4 1.1 -0.5
v -0.4 1.1 -0.6
v -0.4 1.3 -0.3
v -0.4 1.3 -0.4
v -0.4 1.3 -0.5
v -0.4 1.3 -0.6
v -0.4 1.3 -0.7
v -0.4 1.3 -0.8
v -0.4 1.4 -0.3
v -0.4 1.4 -0.4
v -0.4 1.4 -0.5
v -0.4 1.4 -0.6
v -0.4 1.4 -0.7
v -0.4 1.4 -0.8
v -0.4 1.6 -0.4
v -0.4 1.6 -0.5
v -0.4 1.6 -0.6
v -0.4 1.6 -0.7
v -0.4 1.7 -0.5
v -0.4 1.7 -0.6
v 0.2 1.3 0.3
v 0.2 1.3 0.2
v 0.2 1.5 0.3
v 0.2 1.5 0.2
v 0.3 1.1 0.3
v 0.3 1.1 0.2
v 0.3 1.3 0.4
v 0.3 1.3 0.3
v 0.3 1.3 0.2
v 0.3 1.3 0.1
v 0.3 1.5 0.4
v 0.3 1.5 0.3
v 0.3 1.5 0.2
v 0.3 1.5 0.1
v 0.3 1.6 0.3
v 0.3 1.6 0.2
v -0.6 1.1 0.7
v -0.6 1.1 0.6
v -0.6 1.3 0.8
v -0.6 1.3 0.7
v -0.6 1.3 0.6
v -0.6 1.3 0.5
v -0.6 1.5 0.8
v -0.6 1.5 0.7
v -0.6 1.5 0.6
v -0.6 1.5 0.5
v -0.6 1.6 0.7
v -0.6 1.6 0.6
v -0.5 1.3 0.7
v -0.5 1.3 0.6
v -0.5 1.5 0.7
v -0.5 1.5 0.6
v -0.3 1.1 -0.5
v -0.3 1.1 -0.6
v -0.3 1.3 -0.3
v -0.3 1.3 -0.4
v -0.3 1.3 -0.5
v -0.3 1.3 -0.6
v -0.3 1.3 -0.7
v -0.3 1.3 -0.8
v -0.3 1.4 -0.3
v -0.3 1.4 -0.4
v -0.3 1.4 -0.5
v -0.3 1.4 -0.6
v -0.3 1.4 -0.7
v -0.3 1.4 -0.8
v -0.3 1.6 -0.4
v -0.3 1.6 -0.5
v -0.3 1.6 -0.6
v -0.3 1.6 -0.7
v -0.3 1.7 -0.5
v -0.3 1.7 -0.6
v -0.2 1.3 -0.4
v -0.2 1.3 -0.5
v -0.2 1.3 -0.6
v -0.2 1.3 -0.7
v -0.2 1.4 -0.4
v -0.2 1.4 -0.5
v -0.2 1.4 -0.6
v -0.2 1.4 -0.7
v -0.2 1.6 -0.5
v -0.2 1.6 -0.6
v -0.1 1.3 -0.5
v -0.1 1.3 -0.6
v -0.1 1.4 -0.5
v -0.1 1.4 -0.6
v 0.4 1.1 0.3
v 0.4 1.1 0.2
v 0.4 1.3 0.4
v 0.4 1.3 0.3
v 0.4 1.3 0.2
v 0.4 1.3 0.1
v 0.4 1.5 0.4
v 0.4 1.5 0.3
v 0.4 1.5 0.2
v 0.4 1.5 0.1
v 0.4 1.6 0.3
v 0.4 1.6 0.2
v 0.5 1.3 0.3
v 0.5 1.3 0.2
v 0.5 1.5 0.3
v 0.5 1.5 0.2
v 1 0.9 1
v 1 0.9 -1
v 1 1 1
v 1 1 -1
v 1 1.1 1
v 1 1.1 -1
v -1 0.9 1
v -1 1 1
v -1 1.1 1
v 1 0.9 1
v 1 1 1
v 1 1.1 1
v -0.7 1.3 0.8
v -0.7 1.5 0.8
v -0.6 1.3 0.8
v -0.6 1.5 0.8
v -0.8 1.3 0.7
v -0.8 1.5 0.7
v -0.7 1.1 0.7
v -0.7 1.3 0.7
v -0.7 1.5 0.7
v -0.7 1.6 0.7
v -0.6 1.1 0.7
v -0.6 1.3 0.7
v -0.6 1.5 0.7
v -0.6 1.6 0.7
v -0.5 1.3 0.7
v -0.5 1.5 0.7
v 0.3 1.3 0.4
v 0.3 1.5 0.4
v 0.4 1.3 0.4
v 0.4 1.5 0.4
v 0.2 1.3 0.3
v 0.2 1.5 0.3
v 0.3 1.1 0.3
v 0.3 1.3 0.3
v 0.3 1.5 0.3
v 0.3 1.6 0.3
v 0.4 1.1 0.3
v 0.4 1.3 0.3
v 0.4 1.5 0.3
v 0.4 1.6 0.3
v 0.5 1.3 0.3
v 0.5 1.5 0.3
v -0.4 1.3 -0.3
v -0.4 1.4 -0.3
v -0.3 1.3 -0.3
v -0.3 1.4 -0.3
v -0.5 1.3 -0.4
v -0.5 1.4 -0.4
v -0.4 1.3 -0.4
v -0.4 1.4 -0.4
v -0.4 1.6 -0.4
v -0.3 1.3 -0.4
v -0.3 1.4 -0.4
v -0.3 1.6 -0.4
v -0.2 1.3 -0.4
v -0.2 1.4 -0.4
v -0.6 1.3 -0.5
v -0.6 1.4 -0.5
v -0.5 1.3 -0.5
v -0.5 1.4 -0.5
v -0.5 1.6 -0.5
v -0.4 1.1 -0.5
v -0.4 1.3 -0.5
v -0.4 1.4 -0.5
v -0.4 1.6 -0.5
v -0.4 1.7 -0.5
v -0.3 1.1 -0.5
v -0.3 1.3 -0.5
v -0.3 1.4 -0.5
v -0.3 1.6 -0.5
v -0.3 1.7 -0.5
v -0.2 1.3 -0.5
v -0.2 1.4 -0.5
v -0.2 1.6 -0.5
v -0.1 1.3 -0.5
v -0.1 1.4 -0.5
v -0.8 1.3 0.6
v -0.8 1.5 0.6
v -0.7 1.1 0.6
v -0.7 1.3 0.6
v -0.7 1.5 0.6
v -0.7 1.6 0.6
v -0.6 1.1 0.6
v -0.6 1.3 0.6
v -0.6 1.5 0.6
v -0.6 1.6 0.6
v -0.5 1.3 0.6
v -0.5 1.5 0.6
v -0.7 1.3 0.5
v -0.7 1.5 0.5
v -0.6 1.3 0.5
v -0.6 1.5 0.5
v 0.2 1.3 0.2
v 0.2 1.5 0.2
v 0.3 1.1 0.2
v 0.3 1.3 0.2
v 0.3 1.5 0.2
v 0.3 1.6 0.2
v 0.4 1.1 0.2
v 0.4 1.3 0.2
v 0.4 1.5 0.2
v 0.4 1.6 0.2
v 0.5 1.3 0.2
v 0.5 1.5 0.2
v 0.3 1.3 0.1
v 0.3 1.5 0.1
v 0.4 1.3 0.1
v 0.4 1.5 0.1
v -0.6 1.3 -0.6
v -0.6 1.4 -0.6
v -0.5 1.3 -0.6
v -0.5 1.4 -0.6
v -0.5 1.6 -0.6
v -0.4 1.1 -0.6
v -0.4 1.3 -0.6
v -0.4 1.4 -0.6
v -0.4 1.6 -0.6
v -0.4 1.7 -0.6
v -0.3 1.1 -0.6
v -0.3 1.3 -0.6
v -0.3 1.4 -0.6
v -0.3 1.6 -0.6
v -0.3 1.7 -0.6
v -0.2 1.3 -0.6
v -0.2 1.4 -0.6
v -0.2 1.6 -0.6
v -0.1 1.3 -0.6
v -0.1 1.4 -0.6
v -0.5 1.3 -0.7
v -0.5 1.4 -0.7
v -0.4 1.3 -0.7
v -0.4 1.4 -0.7
v -0.4 1.6 -0.7
v -0.3 1.3 -0.7
v -0.3 1.4 -0.7
v -0.3 1.6 -0.7
v -0.2 1.3 -0.7
v -0.2 1.4 -0.7
v -0.4 1.3 -0.8
v -0.4 1.4 -0.8
v -0.3 1.3 -0.8
v -0.3 1.4 -0.8
v -1 0.9 -1
v -1 1 -1
v -1 1.1 -1
v 1 0.9 -1
v 1 1 -1
v 1 1.1 -1
v -1 0.9 1
v 1 0.9 1
v -1 0.9 -1
v 1 0.9 -1
v -0.7 1.3 0.8
v -0.6 1.3 0.8
v -0.8 1.3 0.7
v -0.7 1.3 0.7
v -0.6 1.3 0.7
v -0.5 1.3 0.7
v -0.8 1.3 0.6
v -0.7 1.3 0.6
v -0.6 1.3 0.6
v -0.5 1.3 0.6
v -0.7 1.3 0.5
v -0.6 1.3 0.5
v 0.3 1.3 0.4
v 0.4 1.3 0.4
v 0.2 1.3 0.3
v 0.3 1.3 0.3
v 0.4 1.3 0.3
v 0.5 1.3 0.3
v 0.2 1.3 0.2
v 0.3 1.3 0.2
v 0.4 1.3 0.2
v 0.5 1.3 0.2
v 0.3 1.3 0.1
v 0.4 1.3 0.1
v -0.4 1.3 -0.3
v -0.3 1.3 -0.3
v -0.5 1.3 -0.4
v -0.4 1.3 -0.4
v -0.3 1.3 -0.4
v -0.2 1.3 -0.4
v -0.6 1.3 -0.5
v -0.5 1.3 -0.5
v -0.4 1.3 -0.5
v -0.3 1.3 -0.5
v -0.2 1.3 -0.5
v -0.1 1.3 -0.5
v -0.6 1.3 -0.6
v -0.5 1.3 -0.6
v -0.4 1.3 -0.6
v -0.3 1.3 -0.6
v -0.2 1.3 -0.6
v -0.1 1.3 -0.6
v -0.5 1.3 -0.7
v -0.4 1.3 -0.7
v -0.3 1.3 -0.7
v -0.2 1.3 -0.7
v -0.4 1.3 -0.8
v -0.3 1.3 -0.8
v -1 1.1 1
v 1 1.1 1
v -0.7 1.1 0.7
v -0.6 1.1 0.7
v -0.7 1.1 0.6
v -0.6 1.1 0.6
v 0.3 1.1 0.3
v 0.4 1.1 0.3
v 0.3 1.1 0.2
v 0.4 1.1 0.2
v -0.4 1.1 -0.5
v -0.3 1.1 -0.5
v -0.4 1.1 -0.6
v -0.3 1.1 -0.6
v -1 1.1 -1
v 1 1.1 -1
v -0.4 1.4 -0.3
v -0.3 1.4 -0.3
v -0.5 1.4 -0.4
v -0.4 1.4 -0.4
v -0.3 1.4 -0.4
v -0.2 1.4 -0.4
v -0.6 1.4 -0.5
v -0.5 1.4 -0.5
v -0.4 1.4 -0.5
v -0.3 1.4 -0.5
v -0.2 1.4 -0.5
v -0.1 1.4 -0.5
v -0.6 1.4 -0.6
v -0.5 1.4 -0.6
v -0.4 1.4 -0.6
v -0.3 1.4 -0.6
v -0.2 1.4 -0.6
v -0.1 1.4 -0.6
v -0.5 1.4 -0.7
v -0.4 1.4 -0.7
v -0.3 1.4 -0.7
v -0.2 1.4 -0.7
v -0.4 1.4 -0.8
v -0.3 1.4 -0.8
v -0.7 1.5 0.8
v -0.6 1.5 0.8
v -0.8 1.5 0.7
v -0.7 1.5 0.7
v -0.6 1.5 0.7
v -0.5 1.5 0.7
v -0.8 1.5 0.6
v -0.7 1.5 0.6
v -0.6 1.5 0.6
v -0.5 1.5 0.6
v -0.7 1.5 0.5
v -0.6 1.5 0.5
v 0.3 1.5 0.4
v 0.4 1.5 0.4
v 0.2 1.5 0.3
v 0.3 1.5 0.3
v 0.4 1.5 0.3
v 0.5 1.5 0.3
v 0.2 1.5 0.2
v 0.3 1.5 0.2
v 0.4 1.5 0.2
v 0.5 1.5 0.2
v 0.3 1.5 0.1
v 0.4 1.5 0.1
v -0.7 1.6 0.7
v -0.6 1.6 0.7
v -0.7 1.6 0.6
v -0.6 1.6 0.6
v 0.3 1.6 0.3
v 0.4 1.6 0.3
v 0.3 1.6 0.2
v 0.4 1.6 0.2
v -0.4 1.6 -0.4
v -0.3 1.6 -0.4
v -0.5 1.6 -0.5
v -0.4 1.6 -0.5
v -0.3 1.6 -0.5
v -0.2 1.6 -0.5
v -0.5 1.6 -0.6
v -0.4 1.6 -0.6
v -0.3 1.6 -0.6
v -0.2 1.6 -0.6
v -0.4 1.6 -0.7
v -0.3 1.6 -0.7
v -0.4 1.7 -0.5
v -0.3 1.7 -0.5
v -0.4 1.7 -0.6
v -0.3 1.7 -0.6

# faces
f 3/4/1 2/4/1 1/4/1
f 4/4/1 2/4/1 3/4/1
f 5/2/1 4/2/1 3/2/1
f 6/2/1 4/2/1 5/2/1
f 9/1/1 8/1/1 7/1/1
f 10/1/1 8/1/1 9/1/1
f 14/3/1 12/3/1 11/3/1
f 15/3/1 12/3/1 14/3/1
f 17/1/1 14/1/1 13/1/1
f 18/1/1 14/1/1 17/1/1
f 19/1/1 16/1/1 15/1/1
f 20/1/1 16/1/1 19/1/1
f 21/1/1 19/1/1 18/1/1
f 22/1/1 19/1/1 21/1/1
f 25/1/1 24/1/1 23/1/1
f 26/1/1 24/1/1 25/1/1
f 31/1/1 28/1/1 27/1/1
f 32/1/1 28/1/1 31/1/1
f 33/1/1 30/1/1 29/1/1
f 34/1/1 30/1/1 33/1/1
f 35/1/1 33/1/1 32/1/1
f 36/1/1 33/1/1 35/1/1
f 41/3/1 38/3/1 37/3/1
f 42/3/1 38/3/1 41/3/1
f 45/1/1 40/1/1 39/1/1
f 46/1/1 40/1/1 45/1/1
f 49/1/1 44/1/1 43/1/1
f 50/1/1 44/1/1 49/1/1
f 51/1/1 47/1/1 46/1/1
f 52/1/1 47/1/1 51/1/1
f 53/1/1 49/1/1 48/1/1
f 54/1/1 49/1/1 53/1/1
f 55/1/1 53/1/1 52/1/1
f 56/1/1 53/1/1 55/1/1
f 59/1/1 58/1/1 57/1/1
f 60/1/1 58/1/1 59/1/1
f 64/3/1 62/3/1 61/3/1
f 65/3/1 62/3/1 64/3/1
f 67/1/1 64/1/1 63/1/1
f 68/1/1 64/1/1 67/1/1
f 69/1/1 66/1/1 65/1/1
f 70/1/1 66/1/1 69/1/1
f 71/1/1 69/1/1 68/1/1
f 72/1/1 69/1/1 71/1/1
f 73/3/2 74/3/2 76/3/2
f 76/3/2 74/3/2 77/3/2
f 75/1/2 76/1/2 79/1/2
f 79/1/2 76/1/2 80/1/2
f 77/1/2 78/1/2 81/1/2
f 81/1/2 78/1/2 82/1/2
f 80/1/2 81/1/2 83/1/2
f 83/1/2 81/1/2 84/1/2
f 85/1/2 86/1/2 87/1/2
f 87/1/2 86/1/2 88/1/2
f 89/3/2 90/3/2 93/3/2
f 93/3/2 90/3/2 94/3/2
f 91/1/2 92/1/2 97/1/2
f 97/1/2 92/1/2 98/1/2
f 95/1/2 96/1/2 101/1/2
f 101/1/2 96/1/2 102/1/2
f 98/1/2 99/1/2 103/1/2
f 103/1/2 99/1/2 104/1/2
f 100/1/2 101/1/2 105/1/2
f 105/1/2 101/1/2 106/1/2
f 104/1/2 105/1/2 107/1/2
f 107/1/2 105/1/2 108/1/2
f 109/1/2 110/1/2 113/1/2
f 113/1/2 110/1/2 114/1/2
f 111/1/2 112/1/2 115/1/2
f 115/1/2 112/1/2 116/1/2
f 114/1/2 115/1/2 117/1/2
f 117/1/2 115/1/2 118/1/2
f 119/1/2 120/1/2 121/1/2
f 121/1/2 120/1/2 122/1/2
f 123/3/2 124/3/2 126/3/2
f 126/3/2 124/3/2 127/3/2
f 125/1/2 126/1/2 129/1/2
f 129/1/2 126/1/2 130/1/2
f 127/1/2 128/1/2 131/1/2
f 131/1/2 128/1/2 132/1/2
f 130/1/2 131/1/2 133/1/2
f 133/1/2 131/1/2 134/1/2
f 135/1/2 136/1/2 137/1/2
f 137/1/2 136/1/2 138/1/2
f 139/4/2 140/4/2 141/4/2
f 141/4/2 140/4/2 142/4/2
f 141/2/2 142/2/2 143/2/2
f 143/2/2 142/2/2 144/2/2
f 148/4/3 146/4/3 145/4/3
f 149/2/3 147/2/3 146/2/3
f 149/4/3 146/4/3 148/4/3
f 150/2/3 147/2/3 149/2/3
f 153/1/3 152/1/3 151/1/3
f 154/1/3 152/1/3 153/1/3
f 158/1/3 156/1/3 155/1/3
f 159/1/3 156/1/3 158/1/3
f 161/3/3 158/3/3 157/3/3
f 162/3/3 158/3/3 161/3/3
f 163/1/3 160/1/3 159/1/3
f 164/1/3 160/1/3 163/1/3
f 165/1/3 163/1/3 162/1/3
f 166/1/3 163/1/3 165/1/3
f 169/1/3 168/1/3 167/1/3
f 170/1/3 168/1/3 169/1/3
f 174/1/3 172/1/3 171/1/3
f 175/1/3 172/1/3 174/1/3
f 177/3/3 174/3/3 173/3/3
f 178/3/3 174/3/3 177/3/3
f 179/1/3 176/1/3 175/1/3
f 180/1/3 176/1/3 179/1/3
f 181/1/3 179/1/3 178/1/3
f 182/1/3 179/1/3 181/1/3
f 185/1/3 184/1/3 183/1/3
f 186/1/3 184/1/3 185/1/3
f 189/1/3 188/1/3 187/1/3
f 190/1/3 188/1/3 189/1/3
f 193/1/3 191/1/3 190/1/3
f 194/1/3 191/1/3 193/1/3
f 195/1/3 193/1/3 192/1/3
f 196/1/3 193/1/3 195/1/3
f 199/1/3 198/1/3 197/1/3
f 200/1/3 198/1/3 199/1/3
f 204/1/3 201/1/3 200/1/3
f 205/1/3 201/1/3 204/1/3
f 207/3/3 203/3/3 202/3/3
f 208/3/3 203/3/3 207/3/3
f 210/1/3 206/1/3 205/1/3
f 211/1/3 206/1/3 210/1/3
f 213/1/3 210/1/3 209/1/3
f 214/1/3 210/1/3 213/1/3
f 215/1/3 213/1/3 212/1/3
f 216/1/3 213/1/3 215/1/3
f 217/1/4 218/1/4 220/1/4
f 220/1/4 218/1/4 221/1/4
f 219/3/4 220/3/4 223/3/4
f 223/3/4 220/3/4 224/3/4
f 221/1/4 222/1/4 225/1/4
f 225/1/4 222/1/4 226/1/4
f 224/1/4 225/1/4 227/1/4
f 227/1/4 225/1/4 228/1/4
f 229/1/4 230/1/4 231/1/4
f 231/1/4 230/1/4 232/1/4
f 233/1/4 234/1/4 236/1/4
f 236/1/4 234/1/4 237/1/4
f 235/3/4 236/3/4 239/3/4
f 239/3/4 236/3/4 240/3/4
f 237/1/4 238/1/4 241/1/4
f 241/1/4 238/1/4 242/1/4
f 240/1/4 241/1/4 243/1/4
f 243/1/4 241/1/4 244/1/4
f 245/1/4 246/1/4 247/1/4
f 247/1/4 246/1/4 248/1/4
f 249/1/4 250/1/4 251/1/4
f 251/1/4 250/1/4 252/1/4
f 252/1/4 253/1/4 256/1/4
f 256/1/4 253/1/4 257/1/4
f 254/3/4 255/3/4 259/3/4
f 259/3/4 255/3/4 260/3/4
f 257/1/4 258/1/4 262/1/4
f 262/1/4 258/1/4 263/1/4
f 261/1/4 262/1/4 265/1/4
f 265/1/4 262/1/4 266/1/4
f 264/1/4 265/1/4 267/1/4
f 267/1/4 265/1/4 268/1/4
f 269/1/4 270/1/4 271/1/4
f 271/1/4 270/1/4 272/1/4
f 272/1/4 273/1/4 275/1/4
f 275/1/4 273/1/4 276/1/4
f 274/1/4 275/1/4 277/1/4
f 277/1/4 275/1/4 278/1/4
f 279/1/4 280/1/4 281/1/4
f 281/1/4 280/1/4 282/1/4
f 283/4/4 284/4/4 286/4/4
f 284/2/4 285/2/4 287/2/4
f 286/4/4 284/4/4 287/4/4
f 287/2/4 285/2/4 288/2/4
f 291/4/5 290/4/5 289/4/5
f 292/4/5 290/4/5 291/4/5
f 296/1/5 294/1/5 293/1/5
f 297/1/5 294/1/5 296/1/5
f 299/1/5 296/1/5 295/1/5
f 300/1/5 296/1/5 299/1/5
f 301/1/5 298/1/5 297/1/5
f 302/1/5 298/1/5 301/1/5
f 303/1/5 301/1/5 300/1/5
f 304/1/5 301/1/5 303/1/5
f 308/1/5 306/1/5 305/1/5
f 309/1/5 306/1/5 308/1/5
f 311/1/5 308/1/5 307/1/5
f 312/1/5 308/1/5 311/1/5
f 313/1/5 310/1/5 309/1/5
f 314/1/5 310/1/5 313/1/5
f 315/1/5 313/1/5 312/1/5
f 316/1/5 313/1/5 315/1/5
f 320/1/5 318/1/5 317/1/5
f 321/1/5 318/1/5 320/1/5
f 324/1/5 320/1/5 319/1/5
f 324/1/5 322/1/5 321/1/5
f 324/1/5 321/1/5 320/1/5
f 325/1/5 322/1/5 324/1/5
f 326/1/5 322/1/5 325/1/5
f 327/1/5 322/1/5 326/1/5
f 329/1/5 324/1/5 323/1/5
f 329/1/5 325/1/5 324/1/5
f 330/1/5 325/1/5 329/1/5
f 331/1/5 325/1/5 330/1/5
f 332/1/5 328/1/5 327/1/5
f 332/1/5 327/1/5 326/1/5
f 333/1/5 328/1/5 332/1/5
f 334/1/5 328/1/5 333/1/5
f 335/1/5 331/1/5 330/1/5
f 335/1/5 333/1/5 332/1/5
f 335/1/5 332/1/5 331/1/5
f 336/1/5 333/1/5 335/1/5
f 337/1/5 333/1/5 336/1/5
f 338/1/5 333/1/5 337/1/5
f 339/1/5 337/1/5 336/1/5
f 340/1/5 337/1/5 339/1/5
f 341/2/6 342/2/6 343/2/6
f 343/2/6 342/2/6 344/2/6
f 341/2/6 343/2/6 345/2/6
f 344/2/6 342/2/6 346/2/6
f 346/2/6 342/2/6 347/2/6
f 345/2/6 346/2/6 347/2/6
f 347/2/6 342/2/6 348/2/6
f 345/2/6 347/2/6 349/2/6
f 348/2/6 342/2/6 350/2/6
f 345/2/6 349/2/6 351/2/6
f 349/2/6 350/2/6 351/2/6
f 351/2/6 350/2/6 352/2/6
f 345/2/6 351/2/6 353/2/6
f 352/2/6 350/2/6 354/2/6
f 341/2/6 345/2/6 355/2/6
f 353/2/6 354/2/6 355/2/6
f 345/2/6 353/2/6 355/2/6
f 354/2/6 350/2/6 356/2/6
f 355/2/6 354/2/6 356/2/6
f 350/2/6 342/2/6 356/2/6
f 357/1/6 358/1/6 360/1/6
f 360/1/6 358/1/6 361/1/6
f 359/1/6 360/1/6 364/1/6
f 364/1/6 360/1/6 365/1/6
f 361/1/6 362/1/6 366/1/6
f 366/1/6 362/1/6 367/1/6
f 363/1/6 364/1/6 369/1/6
f 369/1/6 364/1/6 370/1/6
f 367/1/6 368/1/6 373/1/6
f 373/1/6 368/1/6 374/1/6
f 370/1/6 371/1/6 375/1/6
f 375/1/6 371/1/6 376/1/6
f 372/1/6 373/1/6 377/1/6
f 377/1/6 373/1/6 378/1/6
f 376/1/6 377/1/6 379/1/6
f 379/1/6 377/1/6 380/1/6
f 381/1/6 382/1/6 384/1/6
f 384/1/6 382/1/6 385/1/6
f 383/1/6 384/1/6 387/1/6
f 387/1/6 384/1/6 388/1/6
f 385/1/6 386/1/6 389/1/6
f 389/1/6 386/1/6 390/1/6
f 388/1/6 389/1/6 391/1/6
f 391/1/6 389/1/6 392/1/6
f 393/1/6 394/1/6 396/1/6
f 396/1/6 394/1/6 397/1/6
f 395/1/6 396/1/6 399/1/6
f 399/1/6 396/1/6 400/1/6
f 397/1/6 398/1/6 401/1/6
f 401/1/6 398/1/6 402/1/6
f 400/1/6 401/1/6 403/1/6
f 403/1/6 401/1/6 404/1/6
f 405/1/6 406/1/6 407/1/6
f 407/1/6 406/1/6 408/1/6
f 409/1/6 410/1/6 411/1/6
f 411/1/6 410/1/6 412/1/6
f 413/1/6 414/1/6 416/1/6
f 416/1/6 414/1/6 417/1/6
f 415/1/6 416/1/6 419/1/6
f 419/1/6 416/1/6 420/1/6
f 417/1/6 418/1/6 421/1/6
f 421/1/6 418/1/6 422/1/6
f 420/1/6 421/1/6 423/1/6
f 423/1/6 421/1/6 424/1/6
f 425/1/6 426/1/6 427/1/6
f 427/1/6 426/1/6 428/1/6
