# MagicaVoxel @ Ephtracy

# group
o 

# material
mtllib Tile5.mtl
usemtl palette

# normals
vn -1 0 0
vn 1 0 0
vn 0 0 1
vn 0 0 -1
vn 0 -1 0
vn 0 1 0

# texcoords
vt 0.970703 0.5
vt 0.974609 0.5

# verts
v -0.5 0 0.1
v -0.5 0 0
v -0.5 0 -0.1
v -0.5 0.4 0.5
v -0.5 0.4 0.1
v -0.5 0.5 0.5
v -0.5 0.5 0
v -0.5 0.6 0.5
v -0.5 0.6 -0.1
v -0.1 0 0.5
v -0.1 0 0.1
v -0.1 0.4 0.5
v -0.1 0.4 0.1
v 0.1 0 0.5
v 0.1 0 -0.1
v 0.1 0.6 0.5
v 0.1 0.6 -0.1
v -0.5 0.4 0.5
v -0.5 0.5 0.5
v -0.5 0.6 0.5
v -0.1 0 0.5
v -0.1 0.4 0.5
v 0 0 0.5
v 0 0.5 0.5
v 0.1 0 0.5
v 0.1 0.6 0.5
v -0.5 0 0.1
v -0.5 0.4 0.1
v -0.1 0 0.1
v -0.1 0.4 0.1
v -0.5 0 -0.1
v -0.5 0.6 -0.1
v 0.1 0 -0.1
v 0.1 0.6 -0.1
v -0.1 0 0.5
v 0 0 0.5
v 0.1 0 0.5
v -0.5 0 0.1
v -0.1 0 0.1
v -0.5 0 0
v 0 0 0
v -0.5 0 -0.1
v 0.1 0 -0.1
v -0.5 0.4 0.5
v -0.1 0.4 0.5
v -0.5 0.4 0.1
v -0.1 0.4 0.1
v -0.5 0.6 0.5
v 0.1 0.6 0.5
v -0.5 0.6 -0.1
v 0.1 0.6 -0.1

# faces
f 5/1/1 2/1/1 1/1/1
f 6/1/1 5/1/1 4/1/1
f 7/2/1 3/2/1 2/2/1
f 7/1/1 5/1/1 6/1/1
f 7/1/1 2/1/1 5/1/1
f 8/2/1 7/2/1 6/2/1
f 9/2/1 3/2/1 7/2/1
f 9/2/1 7/2/1 8/2/1
f 12/1/1 11/1/1 10/1/1
f 13/1/1 11/1/1 12/1/1
f 14/2/2 15/2/2 16/2/2
f 16/2/2 15/2/2 17/2/2
f 22/1/3 19/1/3 18/1/3
f 23/1/3 22/1/3 21/1/3
f 24/2/3 20/2/3 19/2/3
f 24/1/3 22/1/3 23/1/3
f 24/1/3 19/1/3 22/1/3
f 25/2/3 24/2/3 23/2/3
f 26/2/3 20/2/3 24/2/3
f 26/2/3 24/2/3 25/2/3
f 29/1/3 28/1/3 27/1/3
f 30/1/3 28/1/3 29/1/3
f 31/2/4 32/2/4 33/2/4
f 33/2/4 32/2/4 34/2/4
f 39/1/5 36/1/5 35/1/5
f 40/1/5 39/1/5 38/1/5
f 41/2/5 37/2/5 36/2/5
f 41/1/5 39/1/5 40/1/5
f 41/1/5 36/1/5 39/1/5
f 42/2/5 41/2/5 40/2/5
f 43/2/5 37/2/5 41/2/5
f 43/2/5 41/2/5 42/2/5
f 46/1/5 45/1/5 44/1/5
f 47/1/5 45/1/5 46/1/5
f 48/2/6 49/2/6 50/2/6
f 50/2/6 49/2/6 51/2/6
